<?xml version="1.0" encoding="UTF-8"?>
<!--Generator: Apple Native CoreSVG 123-->
<!DOCTYPE svg
PUBLIC "-//W3C//DTD SVG 1.1//EN"
       "http://www.w3.org/Graphics/SVG/1.1/DTD/svg11.dtd">
<svg version="1.1" xmlns="http://www.w3.org/2000/svg" xmlns:xlink="http://www.w3.org/1999/xlink" width="3300" height="2200">
 <!--glyph: "uni1005DD.medium", point size: 100.000000, font version: "Version 15.0d7e11", template writer version: "5"-->
 <g id="Notes">
  <rect height="2200" id="artboard" style="fill:white;opacity:1" width="3300" x="0" y="0"/>
  <line id="" style="fill:none;stroke:black;opacity:1;stroke-width:0.5;" x1="263" x2="3036" y1="292" y2="292"/>
  <text style="stroke:none;fill:black;font-family:-apple-system,&quot;SF Pro Display&quot;,&quot;SF Pro Text&quot;,Helvetica,sans-serif;font-weight:bold;" transform="matrix(1 0 0 1 263 322)">Weight/Scale Variations</text>
  <text style="stroke:none;fill:black;font-family:-apple-system,&quot;SF Pro Display&quot;,&quot;SF Pro Text&quot;,Helvetica,sans-serif;text-anchor:middle;" transform="matrix(1 0 0 1 559.711 322)">Ultralight</text>
  <text style="stroke:none;fill:black;font-family:-apple-system,&quot;SF Pro Display&quot;,&quot;SF Pro Text&quot;,Helvetica,sans-serif;text-anchor:middle;" transform="matrix(1 0 0 1 856.422 322)">Thin</text>
  <text style="stroke:none;fill:black;font-family:-apple-system,&quot;SF Pro Display&quot;,&quot;SF Pro Text&quot;,Helvetica,sans-serif;text-anchor:middle;" transform="matrix(1 0 0 1 1153.13 322)">Light</text>
  <text style="stroke:none;fill:black;font-family:-apple-system,&quot;SF Pro Display&quot;,&quot;SF Pro Text&quot;,Helvetica,sans-serif;text-anchor:middle;" transform="matrix(1 0 0 1 1449.84 322)">Regular</text>
  <text style="stroke:none;fill:black;font-family:-apple-system,&quot;SF Pro Display&quot;,&quot;SF Pro Text&quot;,Helvetica,sans-serif;text-anchor:middle;" transform="matrix(1 0 0 1 1746.56 322)">Medium</text>
  <text style="stroke:none;fill:black;font-family:-apple-system,&quot;SF Pro Display&quot;,&quot;SF Pro Text&quot;,Helvetica,sans-serif;text-anchor:middle;" transform="matrix(1 0 0 1 2043.27 322)">Semibold</text>
  <text style="stroke:none;fill:black;font-family:-apple-system,&quot;SF Pro Display&quot;,&quot;SF Pro Text&quot;,Helvetica,sans-serif;text-anchor:middle;" transform="matrix(1 0 0 1 2339.98 322)">Bold</text>
  <text style="stroke:none;fill:black;font-family:-apple-system,&quot;SF Pro Display&quot;,&quot;SF Pro Text&quot;,Helvetica,sans-serif;text-anchor:middle;" transform="matrix(1 0 0 1 2636.69 322)">Heavy</text>
  <text style="stroke:none;fill:black;font-family:-apple-system,&quot;SF Pro Display&quot;,&quot;SF Pro Text&quot;,Helvetica,sans-serif;text-anchor:middle;" transform="matrix(1 0 0 1 2933.4 322)">Black</text>
  <line id="" style="fill:none;stroke:black;opacity:1;stroke-width:0.5;" x1="263" x2="3036" y1="1903" y2="1903"/>
  <g id="" transform="matrix(1 0 0 1 263 1933)">
   <path d="M 9.24805 0.830078 C 13.5547 0.830078 17.1387 -2.74414 17.1387 -7.05078 C 17.1387 -11.3574 13.5449 -14.9316 9.23828 -14.9316 C 4.94141 -14.9316 1.36719 -11.3574 1.36719 -7.05078 C 1.36719 -2.74414 4.95117 0.830078 9.24805 0.830078 Z M 9.24805 -0.654297 C 5.70312 -0.654297 2.87109 -3.49609 2.87109 -7.05078 C 2.87109 -10.6055 5.69336 -13.4473 9.23828 -13.4473 C 12.793 -13.4473 15.6348 -10.6055 15.6445 -7.05078 C 15.6543 -3.49609 12.8027 -0.654297 9.24805 -0.654297 Z M 9.22852 -3.42773 C 9.69727 -3.42773 9.9707 -3.74023 9.9707 -4.25781 L 9.9707 -6.31836 L 12.1973 -6.31836 C 12.6953 -6.31836 13.0371 -6.57227 13.0371 -7.04102 C 13.0371 -7.51953 12.7148 -7.7832 12.1973 -7.7832 L 9.9707 -7.7832 L 9.9707 -10.0098 C 9.9707 -10.5273 9.69727 -10.8496 9.22852 -10.8496 C 8.75977 -10.8496 8.50586 -10.5078 8.50586 -10.0098 L 8.50586 -7.7832 L 6.29883 -7.7832 C 5.78125 -7.7832 5.44922 -7.51953 5.44922 -7.04102 C 5.44922 -6.57227 5.80078 -6.31836 6.29883 -6.31836 L 8.50586 -6.31836 L 8.50586 -4.25781 C 8.50586 -3.75977 8.75977 -3.42773 9.22852 -3.42773 Z"/>
  </g>
  <g id="" transform="matrix(1 0 0 1 281.506 1933)">
   <path d="M 11.709 2.91016 C 17.1582 2.91016 21.6699 -1.60156 21.6699 -7.05078 C 21.6699 -12.4902 17.1484 -17.0117 11.6992 -17.0117 C 6.25977 -17.0117 1.74805 -12.4902 1.74805 -7.05078 C 1.74805 -1.60156 6.26953 2.91016 11.709 2.91016 Z M 11.709 1.25 C 7.09961 1.25 3.41797 -2.44141 3.41797 -7.05078 C 3.41797 -11.6504 7.08984 -15.3516 11.6992 -15.3516 C 16.3086 -15.3516 20 -11.6504 20.0098 -7.05078 C 20.0195 -2.44141 16.3184 1.25 11.709 1.25 Z M 11.6895 -2.41211 C 12.207 -2.41211 12.5195 -2.77344 12.5195 -3.33984 L 12.5195 -6.23047 L 15.5762 -6.23047 C 16.123 -6.23047 16.5039 -6.51367 16.5039 -7.03125 C 16.5039 -7.55859 16.1426 -7.86133 15.5762 -7.86133 L 12.5195 -7.86133 L 12.5195 -10.9277 C 12.5195 -11.5039 12.207 -11.8555 11.6895 -11.8555 C 11.1719 -11.8555 10.8789 -11.4844 10.8789 -10.9277 L 10.8789 -7.86133 L 7.83203 -7.86133 C 7.26562 -7.86133 6.89453 -7.55859 6.89453 -7.03125 C 6.89453 -6.51367 7.28516 -6.23047 7.83203 -6.23047 L 10.8789 -6.23047 L 10.8789 -3.33984 C 10.8789 -2.79297 11.1719 -2.41211 11.6895 -2.41211 Z"/>
  </g>
  <g id="" transform="matrix(1 0 0 1 304.924 1933)">
   <path d="M 14.9707 5.67383 C 21.9336 5.67383 27.6953 -0.078125 27.6953 -7.04102 C 27.6953 -14.0039 21.9238 -19.7559 14.9609 -19.7559 C 8.00781 -19.7559 2.25586 -14.0039 2.25586 -7.04102 C 2.25586 -0.078125 8.01758 5.67383 14.9707 5.67383 Z M 14.9707 3.85742 C 8.93555 3.85742 4.08203 -1.00586 4.08203 -7.04102 C 4.08203 -13.0762 8.92578 -17.9395 14.9609 -17.9395 C 21.0059 -17.9395 25.8594 -13.0762 25.8691 -7.04102 C 25.8789 -1.00586 21.0156 3.85742 14.9707 3.85742 Z M 14.9512 -1.06445 C 15.5176 -1.06445 15.8691 -1.45508 15.8691 -2.06055 L 15.8691 -6.13281 L 20.1074 -6.13281 C 20.6934 -6.13281 21.1133 -6.46484 21.1133 -7.02148 C 21.1133 -7.59766 20.7227 -7.93945 20.1074 -7.93945 L 15.8691 -7.93945 L 15.8691 -12.1875 C 15.8691 -12.8027 15.5176 -13.1934 14.9512 -13.1934 C 14.3848 -13.1934 14.0625 -12.7832 14.0625 -12.1875 L 14.0625 -7.93945 L 9.83398 -7.93945 C 9.21875 -7.93945 8.80859 -7.59766 8.80859 -7.02148 C 8.80859 -6.46484 9.23828 -6.13281 9.83398 -6.13281 L 14.0625 -6.13281 L 14.0625 -2.06055 C 14.0625 -1.47461 14.3848 -1.06445 14.9512 -1.06445 Z"/>
  </g>
  <text style="stroke:none;fill:black;font-family:-apple-system,&quot;SF Pro Display&quot;,&quot;SF Pro Text&quot;,Helvetica,sans-serif;font-weight:bold;" transform="matrix(1 0 0 1 263 1953)">Design Variations</text>
  <text style="stroke:none;fill:black;font-family:-apple-system,&quot;SF Pro Display&quot;,&quot;SF Pro Text&quot;,Helvetica,sans-serif;" transform="matrix(1 0 0 1 263 1971)">Symbols are supported in up to nine weights and three scales.</text>
  <text style="stroke:none;fill:black;font-family:-apple-system,&quot;SF Pro Display&quot;,&quot;SF Pro Text&quot;,Helvetica,sans-serif;" transform="matrix(1 0 0 1 263 1989)">For optimal layout with text and other symbols, vertically align</text>
  <text style="stroke:none;fill:black;font-family:-apple-system,&quot;SF Pro Display&quot;,&quot;SF Pro Text&quot;,Helvetica,sans-serif;" transform="matrix(1 0 0 1 263 2007)">symbols with the adjacent text.</text>
  <rect height="14" id="" style="fill:#00AEEF;stroke:none;opacity:0.4;" width="3" x="776" y="1919"/>
  <g id="" transform="matrix(1 0 0 1 779 1933)">
   <path d="M 10.5273 0 L 12.373 0 L 7.17773 -14.0918 L 5.43945 -14.0918 L 0.244141 0 L 2.08984 0 L 3.50586 -4.0332 L 9.11133 -4.0332 Z M 6.2793 -11.9531 L 6.33789 -11.9531 L 8.59375 -5.52734 L 4.02344 -5.52734 Z"/>
  </g>
  <rect height="14" id="" style="fill:#00AEEF;stroke:none;opacity:0.4;" width="3" x="791.617" y="1919"/>
  <text style="stroke:none;fill:black;font-family:-apple-system,&quot;SF Pro Display&quot;,&quot;SF Pro Text&quot;,Helvetica,sans-serif;font-weight:bold;" transform="matrix(1 0 0 1 776 1953)">Margins</text>
  <text style="stroke:none;fill:black;font-family:-apple-system,&quot;SF Pro Display&quot;,&quot;SF Pro Text&quot;,Helvetica,sans-serif;" transform="matrix(1 0 0 1 776 1971)">Leading and trailing margins on the left and right side of each symbol</text>
  <text style="stroke:none;fill:black;font-family:-apple-system,&quot;SF Pro Display&quot;,&quot;SF Pro Text&quot;,Helvetica,sans-serif;" transform="matrix(1 0 0 1 776 1989)">can be adjusted by modifying the width of the blue rectangles.</text>
  <text style="stroke:none;fill:black;font-family:-apple-system,&quot;SF Pro Display&quot;,&quot;SF Pro Text&quot;,Helvetica,sans-serif;" transform="matrix(1 0 0 1 776 2007)">Modifications are automatically applied proportionally to all</text>
  <text style="stroke:none;fill:black;font-family:-apple-system,&quot;SF Pro Display&quot;,&quot;SF Pro Text&quot;,Helvetica,sans-serif;" transform="matrix(1 0 0 1 776 2025)">scales and weights.</text>
  <g id="" transform="matrix(1 0 0 1 1289 1933)">
   <path d="M 2.83203 3.11523 L 4.375 4.6582 C 5.22461 5.48828 6.19141 5.41992 7.06055 4.46289 L 17.2754 -6.66016 C 17.7051 -6.36719 18.0957 -6.37695 18.5645 -6.47461 L 19.6094 -6.68945 L 20.3027 -5.99609 L 20.2539 -5.47852 C 20.1855 -4.95117 20.3516 -4.53125 20.8496 -4.0332 L 21.6602 -3.22266 C 22.168 -2.71484 22.8223 -2.68555 23.3008 -3.16406 L 26.5527 -6.41602 C 27.0312 -6.89453 27.0117 -7.54883 26.5039 -8.05664 L 25.6836 -8.87695 C 25.1855 -9.375 24.7754 -9.55078 24.2383 -9.47266 L 23.7109 -9.41406 L 23.0566 -10.0781 L 23.3398 -11.2207 C 23.4863 -11.7871 23.3398 -12.2559 22.7148 -12.8613 L 20.3027 -15.2539 C 16.7578 -18.7793 12.2266 -18.6719 9.11133 -15.5371 C 8.69141 -15.1074 8.64258 -14.5215 8.91602 -14.0918 C 9.15039 -13.7207 9.62891 -13.4961 10.2734 -13.6621 C 11.7871 -14.043 13.3008 -13.9258 14.7852 -12.9199 L 14.1602 -11.3379 C 13.9258 -10.752 13.9453 -10.2734 14.1797 -9.83398 L 3.01758 0.439453 C 2.08008 1.30859 1.97266 2.25586 2.83203 3.11523 Z M 10.6738 -15.1465 C 13.3398 -17.1387 16.6504 -16.8262 19.0527 -14.4141 L 21.6797 -11.8066 C 21.9141 -11.5723 21.9434 -11.3867 21.8848 -11.0938 L 21.5039 -9.53125 L 23.0762 -7.95898 L 24.043 -8.04688 C 24.3262 -8.07617 24.4141 -8.05664 24.6387 -7.83203 L 25.2637 -7.20703 L 22.5098 -4.46289 L 21.8848 -5.07812 C 21.6602 -5.30273 21.6406 -5.40039 21.6699 -5.68359 L 21.7578 -6.64062 L 20.1953 -8.20312 L 18.5742 -7.89062 C 18.291 -7.83203 18.1445 -7.83203 17.9102 -8.07617 L 15.7324 -10.2539 C 15.5078 -10.4883 15.4785 -10.625 15.6055 -10.9473 L 16.5527 -13.2227 C 14.9512 -14.7559 12.8418 -15.6055 10.8008 -14.9512 C 10.7129 -14.9219 10.6445 -14.9414 10.6152 -14.9805 C 10.5859 -15.0293 10.5859 -15.0781 10.6738 -15.1465 Z M 4.10156 2.41211 C 3.61328 1.91406 3.78906 1.61133 4.12109 1.30859 L 15.0781 -8.80859 L 16.3086 -7.57812 L 6.15234 3.34961 C 5.84961 3.68164 5.46875 3.7793 5.06836 3.37891 Z"/>
  </g>
  <text style="stroke:none;fill:black;font-family:-apple-system,&quot;SF Pro Display&quot;,&quot;SF Pro Text&quot;,Helvetica,sans-serif;font-weight:bold;" transform="matrix(1 0 0 1 1289 1953)">Exporting</text>
  <text style="stroke:none;fill:black;font-family:-apple-system,&quot;SF Pro Display&quot;,&quot;SF Pro Text&quot;,Helvetica,sans-serif;" transform="matrix(1 0 0 1 1289 1971)">Symbols should be outlined when exporting to ensure the</text>
  <text style="stroke:none;fill:black;font-family:-apple-system,&quot;SF Pro Display&quot;,&quot;SF Pro Text&quot;,Helvetica,sans-serif;" transform="matrix(1 0 0 1 1289 1989)">design is preserved when submitting to Xcode.</text>
  <text id="template-version" style="stroke:none;fill:black;font-family:-apple-system,&quot;SF Pro Display&quot;,&quot;SF Pro Text&quot;,Helvetica,sans-serif;text-anchor:end;" transform="matrix(1 0 0 1 3036 1933)">Template v.1.0</text>
  <text style="stroke:none;fill:black;font-family:-apple-system,&quot;SF Pro Display&quot;,&quot;SF Pro Text&quot;,Helvetica,sans-serif;text-anchor:end;" transform="matrix(1 0 0 1 3036 1951)">Generated from sterlingsign.square</text>
  <text style="stroke:none;fill:black;font-family:-apple-system,&quot;SF Pro Display&quot;,&quot;SF Pro Text&quot;,Helvetica,sans-serif;text-anchor:end;" transform="matrix(1 0 0 1 3036 1969)">Typeset at 100 points</text>
  <text style="stroke:none;fill:black;font-family:-apple-system,&quot;SF Pro Display&quot;,&quot;SF Pro Text&quot;,Helvetica,sans-serif;" transform="matrix(1 0 0 1 263 726)">Small</text>
  <text style="stroke:none;fill:black;font-family:-apple-system,&quot;SF Pro Display&quot;,&quot;SF Pro Text&quot;,Helvetica,sans-serif;" transform="matrix(1 0 0 1 263 1156)">Medium</text>
  <text style="stroke:none;fill:black;font-family:-apple-system,&quot;SF Pro Display&quot;,&quot;SF Pro Text&quot;,Helvetica,sans-serif;" transform="matrix(1 0 0 1 263 1586)">Large</text>
 </g>
 <g id="Guides">
  <g id="H-reference" style="fill:#27AAE1;stroke:none;" transform="matrix(1 0 0 1 339 696)">
   <path d="M 54.9316 0 L 57.666 0 L 30.5664 -70.459 L 28.0762 -70.459 L 0.976562 0 L 3.66211 0 L 12.9395 -24.4629 L 45.7031 -24.4629 Z M 29.1992 -67.0898 L 29.4434 -67.0898 L 44.8242 -26.709 L 13.8184 -26.709 Z"/>
  </g>
  <line id="Baseline-S" style="fill:none;stroke:#27AAE1;opacity:1;stroke-width:0.577;" x1="263" x2="3036" y1="696" y2="696"/>
  <line id="Capline-S" style="fill:none;stroke:#27AAE1;opacity:1;stroke-width:0.577;" x1="263" x2="3036" y1="625.541" y2="625.541"/>
  <g id="H-reference" style="fill:#27AAE1;stroke:none;" transform="matrix(1 0 0 1 339 1126)">
   <path d="M 54.9316 0 L 57.666 0 L 30.5664 -70.459 L 28.0762 -70.459 L 0.976562 0 L 3.66211 0 L 12.9395 -24.4629 L 45.7031 -24.4629 Z M 29.1992 -67.0898 L 29.4434 -67.0898 L 44.8242 -26.709 L 13.8184 -26.709 Z"/>
  </g>
  <line id="Baseline-M" style="fill:none;stroke:#27AAE1;opacity:1;stroke-width:0.577;" x1="263" x2="3036" y1="1126" y2="1126"/>
  <line id="Capline-M" style="fill:none;stroke:#27AAE1;opacity:1;stroke-width:0.577;" x1="263" x2="3036" y1="1055.54" y2="1055.54"/>
  <g id="H-reference" style="fill:#27AAE1;stroke:none;" transform="matrix(1 0 0 1 339 1556)">
   <path d="M 54.9316 0 L 57.666 0 L 30.5664 -70.459 L 28.0762 -70.459 L 0.976562 0 L 3.66211 0 L 12.9395 -24.4629 L 45.7031 -24.4629 Z M 29.1992 -67.0898 L 29.4434 -67.0898 L 44.8242 -26.709 L 13.8184 -26.709 Z"/>
  </g>
  <line id="Baseline-L" style="fill:none;stroke:#27AAE1;opacity:1;stroke-width:0.577;" x1="263" x2="3036" y1="1556" y2="1556"/>
  <line id="Capline-L" style="fill:none;stroke:#27AAE1;opacity:1;stroke-width:0.577;" x1="263" x2="3036" y1="1485.54" y2="1485.54"/>
  <rect height="119.336" id="left-margin" style="fill:#00AEEF;stroke:none;opacity:0.4;" width="12.4512" x="1392.45" y="1030.79"/>
  <rect height="119.336" id="right-margin" style="fill:#00AEEF;stroke:none;opacity:0.4;" width="12.4512" x="1494.79" y="1030.79"/>
 </g>
 <g id="Symbols">
  <g id="Black-L" transform="matrix(1 0 0 1 2855.62 1556)">
   <path d="M 39.9902 26.5137 L 115.576 26.5137 C 130.811 26.5137 139.502 17.8711 139.502 2.68555 L 139.502 -73.0957 C 139.502 -88.2812 130.811 -96.875 115.576 -96.875 L 39.9902 -96.875 C 24.7559 -96.875 16.0645 -88.2812 16.0645 -73.0957 L 16.0645 2.68555 C 16.0645 17.8711 24.7559 26.5137 39.9902 26.5137 Z M 42.6758 6.29883 C 38.4766 6.29883 36.3281 4.39453 36.3281 -0.146484 L 36.3281 -70.2148 C 36.3281 -74.7559 38.4766 -76.6602 42.6758 -76.6602 L 112.842 -76.6602 C 117.09 -76.6602 119.238 -74.7559 119.238 -70.2148 L 119.238 -0.146484 C 119.238 4.39453 117.09 6.29883 112.842 6.29883 Z M 60.4492 -9.13086 L 93.1152 -9.13086 C 96.8262 -9.13086 99.4629 -11.5234 99.4629 -15.2832 C 99.4629 -18.9941 96.8262 -21.3379 93.1152 -21.3379 L 74.0723 -21.3379 C 76.5625 -23.7305 77.9297 -26.8066 77.9297 -30.127 C 77.9297 -31.1523 77.832 -32.0801 77.6855 -32.8125 L 89.6973 -32.8125 C 92.3828 -32.8125 94.0918 -34.5215 94.0918 -36.9141 C 94.0918 -39.3555 92.3828 -40.9668 89.6973 -40.9668 L 76.123 -40.9668 C 75.8301 -42.3828 75.5371 -43.8477 75.5371 -45.459 C 75.5371 -50.0488 78.8574 -52.9297 85.2051 -52.9297 C 89.2578 -52.9297 90.625 -52.2461 93.457 -52.2461 C 96.5332 -52.2461 98.7793 -53.9551 98.7793 -57.2266 C 98.7793 -59.5215 97.7539 -61.2305 95.6543 -62.5 C 92.9199 -64.1113 88.8672 -64.7949 83.0078 -64.7949 C 68.9941 -64.7949 60.8398 -57.5195 60.8398 -47.2656 C 60.8398 -45.1172 61.2305 -43.0176 61.7188 -40.9668 L 57.8125 -40.9668 C 55.127 -40.9668 53.418 -39.3555 53.418 -36.9141 C 53.418 -34.5215 55.127 -32.8125 57.8125 -32.8125 L 63.3301 -32.8125 C 63.4766 -32.2266 63.5742 -31.5918 63.5742 -31.0547 C 63.5742 -26.4648 61.1328 -23.3887 58.7402 -21.7285 C 56.1035 -19.5801 54.1992 -18.0664 54.1992 -14.9414 C 54.1992 -11.4258 56.7383 -9.13086 60.4492 -9.13086 Z"/>
  </g>
  <g id="Heavy-L" transform="matrix(1 0 0 1 2559.93 1556)">
   <path d="M 38.8184 25.4883 L 114.697 25.4883 C 129.346 25.4883 137.451 17.4316 137.451 2.88086 L 137.451 -73.2422 C 137.451 -87.793 129.346 -95.8496 114.697 -95.8496 L 38.8184 -95.8496 C 24.2188 -95.8496 16.0645 -87.793 16.0645 -73.2422 L 16.0645 2.88086 C 16.0645 17.4316 24.2188 25.4883 38.8184 25.4883 Z M 40.918 8.00781 C 36.084 8.00781 33.5938 5.71289 33.5938 0.585938 L 33.5938 -70.9473 C 33.5938 -76.0742 36.084 -78.3691 40.918 -78.3691 L 112.549 -78.3691 C 117.383 -78.3691 119.922 -76.0742 119.922 -70.9473 L 119.922 0.585938 C 119.922 5.71289 117.383 8.00781 112.549 8.00781 Z M 58.8867 -8.69141 L 92.7734 -8.69141 C 96.0938 -8.69141 98.4375 -10.791 98.4375 -14.1113 C 98.4375 -17.4316 96.0938 -19.5312 92.7734 -19.5312 L 71.6797 -19.5312 C 74.3652 -22.0215 75.9277 -25.5371 75.9277 -29.3457 C 75.9277 -30.7129 75.7812 -31.8848 75.5859 -32.959 L 88.5742 -32.959 C 91.0645 -32.959 92.627 -34.5215 92.627 -36.7676 C 92.627 -39.0625 91.0645 -40.5762 88.5742 -40.5762 L 74.0234 -40.5762 C 73.6328 -42.2363 73.291 -43.9941 73.291 -45.9961 C 73.291 -51.123 76.9531 -54.4922 83.8379 -54.4922 C 88.2812 -54.4922 89.9414 -53.5645 92.4805 -53.5645 C 95.3125 -53.5645 97.2168 -55.127 97.2168 -58.0566 C 97.2168 -60.1562 96.2891 -61.7188 94.1895 -62.8906 C 91.4551 -64.3555 87.5488 -65.0879 82.0801 -65.0879 C 68.3594 -65.0879 60.4004 -57.7637 60.4004 -47.2656 C 60.4004 -45.0195 60.791 -42.7734 61.3281 -40.5762 L 56.9336 -40.5762 C 54.4434 -40.5762 52.8809 -39.0625 52.8809 -36.7676 C 52.8809 -34.5215 54.4434 -32.959 56.9336 -32.959 L 62.9395 -32.959 C 63.1836 -31.9336 63.3301 -30.9082 63.3301 -29.9805 C 63.3301 -24.9512 60.5469 -21.4355 57.4707 -19.873 C 55.0293 -18.1152 53.3203 -16.748 53.3203 -13.8672 C 53.3203 -10.7422 55.6152 -8.69141 58.8867 -8.69141 Z"/>
  </g>
  <g id="Bold-L" transform="matrix(1 0 0 1 2264.37 1556)">
   <path d="M 37.5 24.3652 L 113.721 24.3652 C 127.637 24.3652 135.156 16.8945 135.156 3.07617 L 135.156 -73.3887 C 135.156 -87.207 127.637 -94.7266 113.721 -94.7266 L 37.5 -94.7266 C 23.6328 -94.7266 16.0645 -87.2559 16.0645 -73.3887 L 16.0645 3.07617 C 16.0645 16.8945 23.6328 24.3652 37.5 24.3652 Z M 38.9648 9.91211 C 33.4473 9.91211 30.5176 7.17773 30.5176 1.41602 L 30.5176 -71.7285 C 30.5176 -77.5391 33.4473 -80.2734 38.9648 -80.2734 L 112.256 -80.2734 C 117.725 -80.2734 120.703 -77.5391 120.703 -71.7285 L 120.703 1.41602 C 120.703 7.17773 117.725 9.91211 112.256 9.91211 Z M 57.0801 -8.1543 L 92.4316 -8.1543 C 95.2637 -8.1543 97.2656 -10.0098 97.2656 -12.8418 C 97.2656 -15.6738 95.2637 -17.4805 92.4316 -17.4805 L 68.9941 -17.4805 C 71.875 -20.0684 73.7305 -24.1211 73.7305 -28.4668 C 73.7305 -30.1758 73.5352 -31.6895 73.2422 -33.0566 L 87.3047 -33.0566 C 89.5508 -33.0566 91.0156 -34.5215 91.0156 -36.6211 C 91.0156 -38.7207 89.5508 -40.1367 87.3047 -40.1367 L 71.6797 -40.1367 C 71.1914 -42.1387 70.8008 -44.1895 70.8008 -46.582 C 70.8008 -52.3438 74.8047 -56.2012 82.3242 -56.2012 C 87.207 -56.2012 89.1602 -55.0293 91.4062 -55.0293 C 93.9453 -55.0293 95.5078 -56.4453 95.5078 -58.9844 C 95.5078 -60.8398 94.6777 -62.3047 92.5293 -63.3301 C 89.7949 -64.6484 86.084 -65.3809 81.0547 -65.3809 C 67.627 -65.3809 59.8633 -58.0566 59.8633 -47.2656 C 59.8633 -44.8242 60.3027 -42.4805 60.8887 -40.1367 L 55.957 -40.1367 C 53.7109 -40.1367 52.2461 -38.7207 52.2461 -36.6211 C 52.2461 -34.5215 53.7109 -33.0566 55.957 -33.0566 L 62.4512 -33.0566 C 62.793 -31.6406 63.0859 -30.1758 63.0859 -28.8086 C 63.0859 -23.2422 59.8633 -19.3359 56.0547 -17.8223 C 53.7598 -16.5039 52.3438 -15.2344 52.3438 -12.6953 C 52.3438 -9.96094 54.2969 -8.1543 57.0801 -8.1543 Z"/>
  </g>
  <g id="Semibold-L" transform="matrix(1 0 0 1 1968.44 1556)">
   <path d="M 36.6211 23.584 L 113.037 23.584 C 126.514 23.584 133.594 16.5039 133.594 3.17383 L 133.594 -73.5352 C 133.594 -86.8164 126.514 -93.9453 113.037 -93.9453 L 36.6211 -93.9453 C 23.1934 -93.9453 16.0645 -86.8652 16.0645 -73.5352 L 16.0645 3.17383 C 16.0645 16.5527 23.1934 23.584 36.6211 23.584 Z M 37.5977 11.2793 C 31.6406 11.2793 28.418 8.20312 28.418 1.95312 L 28.418 -72.3145 C 28.418 -78.5156 31.6406 -81.5918 37.5977 -81.5918 L 112.061 -81.5918 C 117.969 -81.5918 121.24 -78.5156 121.24 -72.3145 L 121.24 1.95312 C 121.24 8.20312 117.969 11.2793 112.061 11.2793 Z M 55.9082 -7.8125 L 92.1875 -7.8125 C 94.6777 -7.8125 96.4844 -9.42383 96.4844 -11.9629 C 96.4844 -14.502 94.6777 -16.1133 92.1875 -16.1133 L 67.1875 -16.1133 C 70.2148 -18.75 72.2168 -23.1445 72.2168 -27.832 C 72.2168 -29.7852 71.9727 -31.543 71.582 -33.1543 L 86.4258 -33.1543 C 88.5254 -33.1543 89.9414 -34.5215 89.9414 -36.4746 C 89.9414 -38.5254 88.5254 -39.7949 86.4258 -39.7949 L 70.1172 -39.7949 C 69.5312 -42.041 69.043 -44.3359 69.043 -46.9727 C 69.043 -53.1738 73.3398 -57.373 81.25 -57.373 C 86.4746 -57.373 88.623 -56.0059 90.625 -56.0059 C 92.9688 -56.0059 94.3359 -57.373 94.3359 -59.6191 C 94.3359 -61.3281 93.5547 -62.6465 91.3574 -63.6719 C 88.6719 -64.8926 85.0586 -65.5762 80.3223 -65.5762 C 67.1387 -65.5762 59.4727 -58.252 59.4727 -47.2656 C 59.4727 -44.7266 59.9609 -42.2363 60.5957 -39.7949 L 55.3223 -39.7949 C 53.2227 -39.7949 51.8066 -38.5254 51.8066 -36.4746 C 51.8066 -34.5215 53.2227 -33.1543 55.3223 -33.1543 L 62.1582 -33.1543 C 62.5488 -31.3965 62.8906 -29.6387 62.8906 -27.9785 C 62.8906 -22.0703 59.4238 -17.8711 55.0781 -16.4551 C 52.9297 -15.3809 51.709 -14.1602 51.709 -11.8652 C 51.709 -9.42383 53.3691 -7.8125 55.9082 -7.8125 Z"/>
  </g>
  <g id="Medium-L" transform="matrix(1 0 0 1 1672.31 1556)">
   <path d="M 35.9375 22.998 L 112.5 22.998 C 125.635 22.998 132.422 16.2109 132.422 3.27148 L 132.422 -73.6328 C 132.422 -86.5234 125.635 -93.3105 112.5 -93.3105 L 35.9375 -93.3105 C 22.9004 -93.3105 16.0645 -86.5723 16.0645 -73.6328 L 16.0645 3.27148 C 16.0645 16.2598 22.9004 22.998 35.9375 22.998 Z M 36.5723 12.2559 C 30.2246 12.2559 26.8066 8.98438 26.8066 2.39258 L 26.8066 -72.7051 C 26.8066 -79.2969 30.2246 -82.6172 36.5723 -82.6172 L 111.865 -82.6172 C 118.115 -82.6172 121.68 -79.2969 121.68 -72.7051 L 121.68 2.39258 C 121.68 8.98438 118.115 12.2559 111.865 12.2559 Z M 54.9805 -7.51953 L 91.9922 -7.51953 C 94.2383 -7.51953 95.8496 -9.0332 95.8496 -11.2793 C 95.8496 -13.5742 94.2383 -15.0391 91.9922 -15.0391 L 65.7715 -15.0391 C 68.8965 -17.7246 71.0449 -22.4121 71.0449 -27.3926 C 71.0449 -29.541 70.8008 -31.4453 70.3613 -33.2031 L 85.7422 -33.2031 C 87.7441 -33.2031 89.1113 -34.5215 89.1113 -36.4258 C 89.1113 -38.3301 87.7441 -39.5996 85.7422 -39.5996 L 68.8965 -39.5996 C 68.2617 -41.9434 67.7246 -44.4336 67.7246 -47.2656 C 67.7246 -53.8086 72.2168 -58.252 80.4688 -58.252 C 85.9375 -58.252 88.2324 -56.7871 90.0391 -56.7871 C 92.2852 -56.7871 93.457 -58.0566 93.457 -60.0586 C 93.457 -61.7188 92.6758 -62.9395 90.5273 -63.916 C 87.8418 -65.0391 84.2773 -65.7227 79.7852 -65.7227 C 66.7969 -65.7227 59.2285 -58.3984 59.2285 -47.2656 C 59.2285 -44.6777 59.7168 -42.0898 60.4004 -39.5996 L 54.7852 -39.5996 C 52.832 -39.5996 51.4648 -38.3301 51.4648 -36.4258 C 51.4648 -34.5215 52.832 -33.2031 54.7852 -33.2031 L 61.8652 -33.2031 C 62.4023 -31.25 62.7441 -29.248 62.7441 -27.3438 C 62.7441 -21.1426 59.0332 -16.748 54.3457 -15.3809 C 52.2461 -14.502 51.1719 -13.3789 51.1719 -11.2793 C 51.1719 -9.0332 52.6855 -7.51953 54.9805 -7.51953 Z"/>
  </g>
  <g id="Regular-L" transform="matrix(1 0 0 1 1376.38 1556)">
   <path d="M 35.0586 22.2168 L 111.816 22.2168 C 124.463 22.2168 130.859 15.8691 130.859 3.41797 L 130.859 -73.7305 C 130.859 -86.1816 124.463 -92.5293 111.816 -92.5293 L 35.0586 -92.5293 C 22.4609 -92.5293 16.0645 -86.2305 16.0645 -73.7305 L 16.0645 3.41797 C 16.0645 15.918 22.4609 22.2168 35.0586 22.2168 Z M 35.2539 13.5742 C 28.418 13.5742 24.707 9.96094 24.707 2.97852 L 24.707 -73.291 C 24.707 -80.2734 28.418 -83.8867 35.2539 -83.8867 L 111.67 -83.8867 C 118.359 -83.8867 122.217 -80.2734 122.217 -73.291 L 122.217 2.97852 C 122.217 9.96094 118.359 13.5742 111.67 13.5742 Z M 53.7598 -7.17773 L 91.748 -7.17773 C 93.7012 -7.17773 95.0684 -8.44727 95.0684 -10.4004 C 95.0684 -12.3535 93.7012 -13.6719 91.748 -13.6719 L 63.9648 -13.6719 C 67.2363 -16.4062 69.5801 -21.4844 69.5801 -26.7578 C 69.5801 -29.1504 69.2383 -31.2988 68.75 -33.3008 L 84.9121 -33.3008 C 86.7188 -33.3008 87.9883 -34.4727 87.9883 -36.2793 C 87.9883 -38.0859 86.7188 -39.3066 84.9121 -39.3066 L 67.2852 -39.3066 C 66.6016 -41.8457 66.0156 -44.5312 66.0156 -47.6562 C 66.0156 -54.6387 70.752 -59.4238 79.3945 -59.4238 C 85.2051 -59.4238 87.6953 -57.7637 89.3066 -57.7637 C 91.3574 -57.7637 92.2852 -58.9844 92.2852 -60.6934 C 92.2852 -62.207 91.6016 -63.3301 89.3555 -64.209 C 86.7188 -65.2344 83.3008 -65.918 79.0527 -65.918 C 66.3086 -65.918 58.8867 -58.5938 58.8867 -47.2656 C 58.8867 -44.5312 59.375 -41.8945 60.1074 -39.3066 L 54.1504 -39.3066 C 52.3438 -39.3066 51.0742 -38.0859 51.0742 -36.2793 C 51.0742 -34.4727 52.3438 -33.3008 54.1504 -33.3008 L 61.5723 -33.3008 C 62.1582 -31.0059 62.5977 -28.7598 62.5977 -26.5137 C 62.5977 -19.9707 58.5938 -15.2832 53.418 -13.9648 C 51.416 -13.3789 50.5371 -12.3535 50.5371 -10.4492 C 50.5371 -8.49609 51.8066 -7.17773 53.7598 -7.17773 Z"/>
  </g>
  <g id="Light-L" transform="matrix(1 0 0 1 1080.5 1556)">
   <path d="M 34.0332 21.4355 L 111.23 21.4355 C 123.096 21.4355 129.199 15.2344 129.199 3.56445 L 129.199 -73.8281 C 129.199 -85.5469 123.096 -91.6992 111.23 -91.6992 L 34.0332 -91.6992 C 22.168 -91.6992 16.0645 -85.6445 16.0645 -73.8281 L 16.0645 3.56445 C 16.0645 15.3809 22.168 21.4355 34.0332 21.4355 Z M 34.1797 14.7949 C 26.709 14.7949 22.7051 10.8398 22.7051 3.22266 L 22.7051 -73.4863 C 22.7051 -81.1523 26.709 -85.0586 34.1797 -85.0586 L 111.035 -85.0586 C 118.359 -85.0586 122.559 -81.1523 122.559 -73.4863 L 122.559 3.22266 C 122.559 10.8398 118.359 14.7949 111.035 14.7949 Z M 52.9785 -7.8125 L 90.5273 -7.8125 C 92.1387 -7.8125 93.2129 -8.83789 93.2129 -10.4004 C 93.2129 -12.0117 92.1387 -13.0371 90.5273 -13.0371 L 62.1094 -13.0371 C 65.4785 -15.7715 67.9688 -20.8984 67.9688 -26.0742 C 67.9688 -28.7598 67.5781 -31.1035 66.9922 -33.3984 L 83.6914 -33.3984 C 85.2051 -33.3984 86.2305 -34.375 86.2305 -35.8398 C 86.2305 -37.3535 85.2051 -38.3301 83.6914 -38.3301 L 65.7715 -38.3301 C 64.9902 -41.1621 64.2578 -43.9941 64.2578 -47.2168 C 64.2578 -54.3457 68.8477 -59.4238 78.0273 -59.4238 C 84.3262 -59.4238 86.7188 -57.4707 88.1348 -57.4707 C 89.7949 -57.4707 90.5273 -58.4473 90.5273 -59.8633 C 90.5273 -61.0352 90.0391 -61.9629 88.0859 -62.793 C 85.791 -63.6719 82.4219 -64.6484 77.7832 -64.6484 C 65.332 -64.6484 58.5938 -57.5684 58.5938 -46.9727 C 58.5938 -43.9941 59.2285 -41.1133 60.0098 -38.3301 L 53.9062 -38.3301 C 52.3926 -38.3301 51.3672 -37.3535 51.3672 -35.8398 C 51.3672 -34.375 52.3926 -33.3984 53.9062 -33.3984 L 61.2793 -33.3984 C 61.9141 -30.9082 62.4023 -28.4668 62.4023 -25.9277 C 62.4023 -19.6777 58.5449 -14.5508 52.6855 -13.2812 C 51.1719 -12.8418 50.3418 -12.0605 50.3418 -10.4492 C 50.3418 -8.88672 51.416 -7.8125 52.9785 -7.8125 Z"/>
  </g>
  <g id="Thin-L" transform="matrix(1 0 0 1 784.889 1556)">
   <path d="M 32.666 20.3613 L 110.352 20.3613 C 121.24 20.3613 127.002 14.4531 127.002 3.75977 L 127.002 -73.9746 C 127.002 -84.7168 121.24 -90.5762 110.352 -90.5762 L 32.666 -90.5762 C 21.7773 -90.5762 16.0645 -84.8633 16.0645 -73.9746 L 16.0645 3.75977 C 16.0645 14.6484 21.7773 20.3613 32.666 20.3613 Z M 32.8125 16.4062 C 24.4141 16.4062 19.9707 12.0117 19.9707 3.56445 L 19.9707 -73.7793 C 19.9707 -82.2754 24.4141 -86.6699 32.8125 -86.6699 L 110.205 -86.6699 C 118.359 -86.6699 123.047 -82.2754 123.047 -73.7793 L 123.047 3.56445 C 123.047 12.0117 118.359 16.4062 110.205 16.4062 Z M 51.9531 -8.59375 L 88.9648 -8.59375 C 90.0391 -8.59375 90.7715 -9.32617 90.7715 -10.4004 C 90.7715 -11.5234 90.0391 -12.2559 88.9648 -12.2559 L 59.668 -12.2559 C 63.1836 -14.8926 65.918 -20.166 65.918 -25.1465 C 65.918 -28.1738 65.3809 -30.9082 64.6973 -33.4961 L 82.1289 -33.4961 C 83.2031 -33.4961 83.8867 -34.1797 83.8867 -35.2539 C 83.8867 -36.3281 83.2031 -37.0605 82.1289 -37.0605 L 63.7207 -37.0605 C 62.793 -40.1855 61.9629 -43.2617 61.9629 -46.6797 C 61.9629 -54.0039 66.3574 -59.4238 76.1719 -59.4238 C 83.2031 -59.4238 85.4004 -57.0801 86.6211 -57.0801 C 87.793 -57.0801 88.2324 -57.8125 88.2324 -58.7402 C 88.2324 -59.4727 88.0371 -60.1074 86.3281 -60.8887 C 84.5703 -61.6211 81.25 -62.9883 76.123 -62.9883 C 64.0137 -62.9883 58.2031 -56.2012 58.2031 -46.6309 C 58.2031 -43.2617 58.9844 -40.1367 59.9121 -37.0605 L 53.5645 -37.0605 C 52.4902 -37.0605 51.7578 -36.3281 51.7578 -35.2539 C 51.7578 -34.1797 52.4902 -33.4961 53.5645 -33.4961 L 60.8887 -33.4961 C 61.5723 -30.8105 62.207 -28.0762 62.207 -25.0977 C 62.207 -19.2383 58.4473 -13.5742 51.7578 -12.3535 C 50.8301 -12.1582 50.1465 -11.6699 50.1465 -10.498 C 50.1465 -9.375 50.8789 -8.59375 51.9531 -8.59375 Z"/>
  </g>
  <g id="Ultralight-L" transform="matrix(1 0 0 1 488.739 1556)">
   <path d="M 31.9824 19.7754 L 109.961 19.7754 C 120.312 19.7754 125.879 14.0625 125.879 3.85742 L 125.879 -74.0723 C 125.879 -84.2773 120.312 -89.9902 109.961 -89.9902 L 31.9824 -89.9902 C 21.582 -89.9902 16.0645 -84.4727 16.0645 -74.0723 L 16.0645 3.85742 C 16.0645 14.2578 21.582 19.7754 31.9824 19.7754 Z M 32.1289 17.2363 C 23.1934 17.2363 18.6035 12.6465 18.6035 3.75977 L 18.6035 -73.9258 C 18.6035 -82.8125 23.1934 -87.4512 32.1289 -87.4512 L 109.766 -87.4512 C 118.359 -87.4512 123.291 -82.8125 123.291 -73.9258 L 123.291 3.75977 C 123.291 12.6465 118.359 17.2363 109.766 17.2363 Z M 51.416 -9.0332 L 88.1348 -9.0332 C 88.9648 -9.0332 89.5508 -9.57031 89.5508 -10.4004 C 89.5508 -11.2793 88.9648 -11.8164 88.1348 -11.8164 L 58.3984 -11.8164 C 61.9629 -14.4531 64.8438 -19.8242 64.8438 -24.6582 C 64.8438 -27.8809 64.2578 -30.8105 63.4766 -33.5449 L 81.2988 -33.5449 C 82.1777 -33.5449 82.7148 -34.082 82.7148 -34.9609 C 82.7148 -35.8398 82.1777 -36.4258 81.2988 -36.4258 L 62.6953 -36.4258 C 61.6699 -39.6973 60.791 -42.8711 60.791 -46.3867 C 60.791 -53.8574 65.0391 -59.375 75.1953 -59.375 C 82.6172 -59.375 84.7656 -56.8848 85.791 -56.8848 C 86.7188 -56.8848 87.0605 -57.4707 87.0605 -58.1543 C 87.0605 -58.6914 86.9629 -59.1797 85.4492 -59.9121 C 83.9355 -60.5957 80.6641 -62.1094 75.2441 -62.1094 C 63.3301 -62.1094 58.0566 -55.5176 58.0566 -46.4355 C 58.0566 -42.8711 58.8867 -39.5996 59.8633 -36.4258 L 53.3691 -36.4258 C 52.4902 -36.4258 51.9531 -35.8398 51.9531 -34.9609 C 51.9531 -34.082 52.4902 -33.5449 53.3691 -33.5449 L 60.6934 -33.5449 C 61.4258 -30.7129 62.1094 -27.832 62.1094 -24.707 C 62.1094 -18.9941 58.4473 -13.0859 51.3184 -11.8652 C 50.6348 -11.7676 50.0488 -11.4258 50.0488 -10.498 C 50.0488 -9.66797 50.5859 -9.0332 51.416 -9.0332 Z"/>
  </g>
  <g id="Black-M" transform="matrix(1 0 0 1 2872.19 1126)">
   <path d="M 31.9824 13.5742 L 90.4297 13.5742 C 102.686 13.5742 109.961 6.29883 109.961 -5.95703 L 109.961 -64.4043 C 109.961 -76.6602 102.686 -83.9355 90.4297 -83.9355 L 31.9824 -83.9355 C 19.7266 -83.9355 12.4512 -76.6602 12.4512 -64.4043 L 12.4512 -5.95703 C 12.4512 6.29883 19.7266 13.5742 31.9824 13.5742 Z M 34.9121 -4.73633 C 32.0801 -4.73633 30.7617 -5.81055 30.7617 -8.88672 L 30.7617 -61.4746 C 30.7617 -64.5508 32.0801 -65.6738 34.9121 -65.6738 L 87.5 -65.6738 C 90.332 -65.6738 91.6504 -64.5508 91.6504 -61.4746 L 91.6504 -8.88672 C 91.6504 -5.81055 90.332 -4.73633 87.5 -4.73633 Z M 48.5352 -15.9668 L 71.9727 -15.9668 C 75.2441 -15.9668 77.4902 -18.0176 77.4902 -21.2891 C 77.4902 -24.5605 75.2441 -26.5625 71.9727 -26.5625 L 59.6191 -26.5625 C 61.377 -28.3203 62.207 -30.0781 62.207 -31.9336 C 62.207 -32.4707 62.1582 -32.959 62.1094 -33.252 L 70.4102 -33.252 C 72.6074 -33.252 73.9258 -34.6191 73.9258 -36.5234 C 73.9258 -38.4277 72.6074 -39.6973 70.4102 -39.6973 L 60.9863 -39.6973 C 60.791 -40.5273 60.5957 -41.4062 60.5957 -42.2363 C 60.5957 -45.1172 62.6953 -46.875 67.1387 -46.875 C 69.9707 -46.875 70.6543 -46.5332 73.1445 -46.5332 C 75.6348 -46.5332 77.6855 -47.9004 77.6855 -50.7324 C 77.6855 -52.5879 76.9043 -53.9551 75.4395 -55.0293 C 73.4863 -56.3965 70.2148 -57.1289 64.8926 -57.1289 C 53.8086 -57.1289 47.6562 -51.6602 47.6562 -44.4336 C 47.6562 -42.7734 47.9492 -41.2598 48.3398 -39.6973 L 45.8008 -39.6973 C 43.6035 -39.6973 42.334 -38.4277 42.334 -36.5234 C 42.334 -34.6191 43.6035 -33.252 45.8008 -33.252 L 49.5117 -33.252 C 49.5117 -33.252 49.5117 -33.1543 49.5117 -33.1055 C 49.5117 -30.3223 48.1445 -28.2227 46.8262 -26.8066 C 44.8242 -24.8047 43.0664 -23.6328 43.0664 -20.8984 C 43.0664 -17.9199 45.3613 -15.9668 48.5352 -15.9668 Z"/>
  </g>
  <g id="Heavy-M" transform="matrix(1 0 0 1 2576.39 1126)">
   <path d="M 31.0059 12.6465 L 89.6484 12.6465 C 101.416 12.6465 108.154 5.9082 108.154 -5.81055 L 108.154 -64.5508 C 108.154 -76.2695 101.416 -83.0566 89.6484 -83.0566 L 31.0059 -83.0566 C 19.2383 -83.0566 12.4512 -76.3184 12.4512 -64.5508 L 12.4512 -5.81055 C 12.4512 5.9082 19.2383 12.6465 31.0059 12.6465 Z M 33.252 -3.17383 C 29.9316 -3.17383 28.2715 -4.63867 28.2715 -8.1543 L 28.2715 -62.207 C 28.2715 -65.7715 29.9316 -67.2363 33.252 -67.2363 L 87.3535 -67.2363 C 90.6738 -67.2363 92.334 -65.7715 92.334 -62.207 L 92.334 -8.1543 C 92.334 -4.63867 90.6738 -3.17383 87.3535 -3.17383 Z M 47.0215 -15.2832 L 71.9238 -15.2832 C 74.8047 -15.2832 76.8555 -17.1387 76.8555 -20.0684 C 76.8555 -22.9492 74.8047 -24.7559 71.9238 -24.7559 L 57.5195 -24.7559 C 59.4238 -26.6113 60.4492 -28.8574 60.4492 -31.25 C 60.4492 -32.0801 60.3516 -32.8125 60.2539 -33.3496 L 69.4824 -33.3496 C 71.5332 -33.3496 72.8027 -34.668 72.8027 -36.4746 C 72.8027 -38.3301 71.5332 -39.502 69.4824 -39.502 L 59.082 -39.502 C 58.8379 -40.5762 58.6426 -41.6992 58.6426 -42.9199 C 58.6426 -46.3379 61.084 -48.5352 66.0156 -48.5352 C 69.1895 -48.5352 70.1172 -47.998 72.3633 -47.998 C 74.707 -47.998 76.4648 -49.3164 76.4648 -51.8555 C 76.4648 -53.5645 75.7324 -54.8828 74.1699 -55.8594 C 72.1191 -57.1289 68.9941 -57.7148 64.209 -57.7148 C 53.3691 -57.7148 47.2168 -52.1973 47.2168 -44.4824 C 47.2168 -42.7734 47.5098 -41.1621 47.9004 -39.502 L 44.9219 -39.502 C 42.9199 -39.502 41.6504 -38.3301 41.6504 -36.4746 C 41.6504 -34.668 42.9199 -33.3496 44.9219 -33.3496 L 49.1211 -33.3496 C 49.2188 -32.959 49.2676 -32.4707 49.2676 -32.0801 C 49.2676 -28.7109 47.5098 -26.3184 45.6543 -25 C 43.7012 -23.3398 42.1875 -22.2168 42.1875 -19.7754 C 42.1875 -17.041 44.1895 -15.2832 47.0215 -15.2832 Z"/>
  </g>
  <g id="Bold-M" transform="matrix(1 0 0 1 2280.68 1126)">
   <path d="M 29.8828 11.6699 L 88.7207 11.6699 C 99.9512 11.6699 106.152 5.46875 106.152 -5.66406 L 106.152 -64.6973 C 106.152 -75.8789 99.9512 -82.0312 88.7207 -82.0312 L 29.8828 -82.0312 C 18.6523 -82.0312 12.4512 -75.8789 12.4512 -64.6973 L 12.4512 -5.66406 C 12.4512 5.51758 18.6523 11.6699 29.8828 11.6699 Z M 31.3965 -1.41602 C 27.5391 -1.41602 25.5371 -3.27148 25.5371 -7.32422 L 25.5371 -63.0371 C 25.5371 -67.1387 27.5391 -68.9453 31.3965 -68.9453 L 87.207 -68.9453 C 91.0156 -68.9453 93.0664 -67.1387 93.0664 -63.0371 L 93.0664 -7.32422 C 93.0664 -3.27148 91.0156 -1.41602 87.207 -1.41602 Z M 45.3125 -14.5508 L 71.875 -14.5508 C 74.3652 -14.5508 76.123 -16.1621 76.123 -18.6523 C 76.123 -21.1426 74.3652 -22.7051 71.875 -22.7051 L 55.127 -22.7051 C 57.2266 -24.6582 58.4961 -27.4902 58.4961 -30.5176 C 58.4961 -31.6406 58.3984 -32.6172 58.2031 -33.4961 L 68.457 -33.4961 C 70.3125 -33.4961 71.5332 -34.668 71.5332 -36.4258 C 71.5332 -38.1836 70.3125 -39.3066 68.457 -39.3066 L 56.9824 -39.3066 C 56.6895 -40.6738 56.3965 -42.0898 56.3965 -43.6523 C 56.3965 -47.7539 59.3262 -50.4395 64.7461 -50.4395 C 68.2617 -50.4395 69.5801 -49.707 71.5332 -49.707 C 73.6328 -49.707 75.0977 -50.8789 75.0977 -53.0762 C 75.0977 -54.6875 74.3652 -55.9082 72.7051 -56.7871 C 70.6055 -57.9102 67.627 -58.4473 63.4766 -58.4473 C 52.8809 -58.4473 46.7285 -52.7832 46.7285 -44.5801 C 46.7285 -42.7734 47.0215 -41.0156 47.4609 -39.3066 L 43.9453 -39.3066 C 42.0898 -39.3066 40.8691 -38.1836 40.8691 -36.4258 C 40.8691 -34.668 42.0898 -33.4961 43.9453 -33.4961 L 48.6816 -33.4961 C 48.877 -32.6172 49.0234 -31.7383 49.0234 -30.957 C 49.0234 -26.9531 46.8262 -24.2188 44.3359 -22.998 C 42.4316 -21.6797 41.1621 -20.6543 41.1621 -18.457 C 41.1621 -16.1133 42.8711 -14.5508 45.3125 -14.5508 Z"/>
  </g>
  <g id="Semibold-M" transform="matrix(1 0 0 1 1984.65 1126)">
   <path d="M 29.1016 10.9863 L 88.0859 10.9863 C 98.9746 10.9863 104.785 5.17578 104.785 -5.56641 L 104.785 -64.8438 C 104.785 -75.5859 98.9746 -81.3477 88.0859 -81.3477 L 29.1016 -81.3477 C 18.2617 -81.3477 12.4512 -75.5859 12.4512 -64.8438 L 12.4512 -5.56641 C 12.4512 5.22461 18.2617 10.9863 29.1016 10.9863 Z M 30.127 -0.195312 C 25.8789 -0.195312 23.6328 -2.34375 23.6328 -6.78711 L 23.6328 -63.623 C 23.6328 -68.0664 25.8789 -70.166 30.127 -70.166 L 87.1094 -70.166 C 91.2598 -70.166 93.6035 -68.0664 93.6035 -63.623 L 93.6035 -6.78711 C 93.6035 -2.34375 91.2598 -0.195312 87.1094 -0.195312 Z M 44.1406 -14.0625 L 71.8262 -14.0625 C 74.0723 -14.0625 75.5859 -15.4785 75.5859 -17.6758 C 75.5859 -19.9219 74.0723 -21.3379 71.8262 -21.3379 L 53.4668 -21.3379 C 55.7129 -23.3398 57.1777 -26.5137 57.1777 -29.9805 C 57.1777 -31.2988 57.0312 -32.4707 56.7871 -33.5449 L 67.7246 -33.5449 C 69.4824 -33.5449 70.7031 -34.7168 70.7031 -36.377 C 70.7031 -38.0371 69.4824 -39.1602 67.7246 -39.1602 L 55.5664 -39.1602 C 55.1758 -40.7227 54.834 -42.334 54.834 -44.1895 C 54.834 -48.7305 58.0566 -51.7578 63.8672 -51.7578 C 67.627 -51.7578 69.1895 -50.8301 70.8984 -50.8301 C 72.9492 -50.8301 74.1699 -52.002 74.1699 -53.9551 C 74.1699 -55.4688 73.4375 -56.5918 71.7285 -57.4219 C 69.5801 -58.4473 66.6992 -58.9355 62.9395 -58.9355 C 52.5391 -58.9355 46.3867 -53.1738 46.3867 -44.6289 C 46.3867 -42.7734 46.6797 -40.9668 47.168 -39.1602 L 43.3105 -39.1602 C 41.5039 -39.1602 40.332 -38.0371 40.332 -36.377 C 40.332 -34.7168 41.5039 -33.5449 43.3105 -33.5449 L 48.3887 -33.5449 C 48.6816 -32.4219 48.877 -31.25 48.877 -30.1758 C 48.877 -25.7324 46.2891 -22.7539 43.4082 -21.582 C 41.5527 -20.5566 40.4785 -19.5312 40.4785 -17.5781 C 40.4785 -15.4297 41.9434 -14.0625 44.1406 -14.0625 Z"/>
  </g>
  <g id="Medium-M" transform="matrix(1 0 0 1 1688.47 1126)">
   <path d="M 28.5156 10.4492 L 87.6465 10.4492 C 98.2422 10.4492 103.711 4.98047 103.711 -5.46875 L 103.711 -64.8926 C 103.711 -75.3418 98.2422 -80.8105 87.6465 -80.8105 L 28.5156 -80.8105 C 17.9688 -80.8105 12.4512 -75.3906 12.4512 -64.8926 L 12.4512 -5.46875 C 12.4512 4.98047 17.9688 10.4492 28.5156 10.4492 Z M 29.1504 0.732422 C 24.6582 0.732422 22.168 -1.61133 22.168 -6.34766 L 22.168 -64.0137 C 22.168 -68.75 24.6582 -71.0938 29.1504 -71.0938 L 87.0117 -71.0938 C 91.4551 -71.0938 93.9941 -68.75 93.9941 -64.0137 L 93.9941 -6.34766 C 93.9941 -1.61133 91.4551 0.732422 87.0117 0.732422 Z M 43.2617 -13.6719 L 71.8262 -13.6719 C 73.8281 -13.6719 75.2441 -14.9414 75.2441 -16.9434 C 75.2441 -18.9453 73.8281 -20.2637 71.8262 -20.2637 L 52.2461 -20.2637 C 54.5898 -22.3145 56.1523 -25.8301 56.1523 -29.5898 C 56.1523 -31.1035 55.957 -32.373 55.7129 -33.5938 L 67.1875 -33.5938 C 68.8965 -33.5938 70.0195 -34.7168 70.0195 -36.3281 C 70.0195 -37.9883 68.8965 -39.0625 67.1875 -39.0625 L 54.4434 -39.0625 C 54.0527 -40.7227 53.7109 -42.5293 53.7109 -44.5801 C 53.7109 -49.4629 57.1289 -52.7344 63.1836 -52.7344 C 67.1387 -52.7344 68.8965 -51.709 70.459 -51.709 C 72.3633 -51.709 73.4375 -52.832 73.4375 -54.5898 C 73.4375 -56.0059 72.7539 -57.1289 70.9961 -57.9102 C 68.75 -58.8379 65.9668 -59.2773 62.5488 -59.2773 C 52.2461 -59.2773 46.0938 -53.5156 46.0938 -44.6777 C 46.0938 -42.7734 46.4355 -40.8691 46.9238 -39.0625 L 42.7734 -39.0625 C 41.1133 -39.0625 39.9414 -37.9883 39.9414 -36.3281 C 39.9414 -34.7168 41.1133 -33.5938 42.7734 -33.5938 L 48.1934 -33.5938 C 48.5352 -32.2266 48.7793 -30.8594 48.7793 -29.5898 C 48.7793 -24.8047 45.9473 -21.6309 42.6758 -20.5566 C 40.8691 -19.7266 39.9414 -18.75 39.9414 -16.8945 C 39.9414 -14.9414 41.2598 -13.6719 43.2617 -13.6719 Z"/>
  </g>
  <g id="Regular-M" transform="matrix(1 0 0 1 1392.45 1126)">
   <path d="M 27.7832 9.76562 L 87.0117 9.76562 C 97.2656 9.76562 102.344 4.6875 102.344 -5.37109 L 102.344 -64.9902 C 102.344 -75.0488 97.2656 -80.127 87.0117 -80.127 L 27.7832 -80.127 C 17.5781 -80.127 12.4512 -75.0977 12.4512 -64.9902 L 12.4512 -5.37109 C 12.4512 4.73633 17.5781 9.76562 27.7832 9.76562 Z M 27.8809 1.9043 C 22.998 1.9043 20.3125 -0.683594 20.3125 -5.76172 L 20.3125 -64.5996 C 20.3125 -69.6777 22.998 -72.2656 27.8809 -72.2656 L 86.9141 -72.2656 C 91.748 -72.2656 94.4824 -69.6777 94.4824 -64.5996 L 94.4824 -5.76172 C 94.4824 -0.683594 91.748 1.9043 86.9141 1.9043 Z M 42.0898 -13.1348 L 71.7773 -13.1348 C 73.4863 -13.1348 74.7559 -14.2578 74.7559 -16.0156 C 74.7559 -17.7246 73.4863 -18.8477 71.7773 -18.8477 L 50.6348 -18.8477 C 53.125 -20.9961 54.7852 -24.9023 54.7852 -29.0527 C 54.7852 -30.7617 54.5898 -32.2754 54.2969 -33.6914 L 66.5039 -33.6914 C 68.0664 -33.6914 69.1895 -34.7168 69.1895 -36.3281 C 69.1895 -37.8906 68.0664 -38.916 66.5039 -38.916 L 53.0273 -38.916 C 52.5879 -40.7715 52.1973 -42.7734 52.1973 -45.1172 C 52.1973 -50.3906 55.9082 -54.0039 62.3535 -54.0039 C 66.5527 -54.0039 68.5059 -52.8809 69.873 -52.8809 C 71.6797 -52.8809 72.5098 -53.9062 72.5098 -55.4688 C 72.5098 -56.7871 71.8262 -57.8125 70.0195 -58.4961 C 67.7246 -59.375 65.0391 -59.7656 62.0117 -59.7656 C 51.9531 -59.7656 45.8008 -53.9062 45.8008 -44.7266 C 45.8008 -42.7734 46.0938 -40.8203 46.6309 -38.916 L 42.1387 -38.916 C 40.5273 -38.916 39.4043 -37.8906 39.4043 -36.3281 C 39.4043 -34.7168 40.5273 -33.6914 42.1387 -33.6914 L 47.9004 -33.6914 C 48.291 -32.0312 48.584 -30.3711 48.584 -28.8086 C 48.584 -23.6328 45.459 -20.2148 41.7969 -19.1895 C 39.9902 -18.6035 39.2578 -17.6758 39.2578 -16.0156 C 39.2578 -14.3066 40.3809 -13.1348 42.0898 -13.1348 Z"/>
  </g>
  <g id="Light-M" transform="matrix(1 0 0 1 1096.47 1126)">
   <path d="M 26.8555 9.0332 L 86.4746 9.0332 C 95.9961 9.0332 100.879 4.15039 100.879 -5.22461 L 100.879 -65.0879 C 100.879 -74.5117 95.9961 -79.3945 86.4746 -79.3945 L 26.8555 -79.3945 C 17.334 -79.3945 12.4512 -74.5605 12.4512 -65.0879 L 12.4512 -5.22461 C 12.4512 4.19922 17.334 9.0332 26.8555 9.0332 Z M 26.9531 2.97852 C 21.4844 2.97852 18.5059 0.0976562 18.5059 -5.56641 L 18.5059 -64.7949 C 18.5059 -70.4102 21.4844 -73.3398 26.9531 -73.3398 L 86.3281 -73.3398 C 91.748 -73.3398 94.8242 -70.4102 94.8242 -64.7949 L 94.8242 -5.56641 C 94.8242 0.0976562 91.748 2.97852 86.3281 2.97852 Z M 41.4062 -13.6719 L 70.7031 -13.6719 C 72.0703 -13.6719 73.0957 -14.5996 73.0957 -16.0156 C 73.0957 -17.3828 72.0703 -18.3105 70.7031 -18.3105 L 48.9746 -18.3105 C 51.5137 -20.4102 53.418 -24.3652 53.418 -28.4668 C 53.418 -30.3711 53.125 -32.1289 52.7344 -33.7402 L 65.3809 -33.7402 C 66.6992 -33.7402 67.627 -34.6191 67.627 -35.8887 C 67.627 -37.207 66.6992 -38.0371 65.3809 -38.0371 L 51.6602 -38.0371 C 51.0742 -40.1367 50.5859 -42.2852 50.5859 -44.7266 C 50.5859 -50.1953 54.248 -54.0039 61.084 -54.0039 C 65.7715 -54.0039 67.627 -52.5879 68.8477 -52.5879 C 70.2637 -52.5879 70.9473 -53.4668 70.9473 -54.6875 C 70.9473 -55.7617 70.459 -56.543 68.8477 -57.2266 C 66.8945 -57.959 64.2578 -58.5938 60.8398 -58.5938 C 51.0742 -58.5938 45.5078 -52.9785 45.5078 -44.4824 C 45.5078 -42.2852 45.9473 -40.1367 46.5332 -38.0371 L 41.8945 -38.0371 C 40.5762 -38.0371 39.6484 -37.207 39.6484 -35.8887 C 39.6484 -34.6191 40.5762 -33.7402 41.8945 -33.7402 L 47.6074 -33.7402 C 48.0957 -31.9336 48.4375 -30.127 48.4375 -28.2715 C 48.4375 -23.291 45.4102 -19.5312 41.1621 -18.5547 C 39.7461 -18.1152 39.1113 -17.3828 39.1113 -16.0156 C 39.1113 -14.6484 40.0391 -13.6719 41.4062 -13.6719 Z"/>
  </g>
  <g id="Thin-M" transform="matrix(1 0 0 1 800.758 1126)">
   <path d="M 25.6348 8.05664 L 85.7422 8.05664 C 94.3848 8.05664 98.877 3.4668 98.877 -5.0293 L 98.877 -65.2344 C 98.877 -73.7305 94.3848 -78.3691 85.7422 -78.3691 L 25.6348 -78.3691 C 16.9922 -78.3691 12.4512 -73.877 12.4512 -65.2344 L 12.4512 -5.0293 C 12.4512 3.56445 16.9922 8.05664 25.6348 8.05664 Z M 25.7324 4.44336 C 19.3848 4.44336 16.0645 1.12305 16.0645 -5.22461 L 16.0645 -65.0391 C 16.0645 -71.4355 19.3848 -74.7559 25.7324 -74.7559 L 85.5957 -74.7559 C 91.748 -74.7559 95.2637 -71.4355 95.2637 -65.0391 L 95.2637 -5.22461 C 95.2637 1.12305 91.748 4.44336 85.5957 4.44336 Z M 40.4785 -14.4043 L 69.2871 -14.4043 C 70.2148 -14.4043 70.8984 -15.0391 70.8984 -16.0156 C 70.8984 -16.9434 70.2148 -17.5781 69.2871 -17.5781 L 46.7773 -17.5781 C 49.4629 -19.6777 51.5137 -23.7305 51.5137 -27.6367 C 51.5137 -29.8828 51.1719 -31.9336 50.6348 -33.8379 L 63.9648 -33.8379 C 64.8926 -33.8379 65.5273 -34.4727 65.5273 -35.4004 C 65.5273 -36.3281 64.8926 -36.9141 63.9648 -36.9141 L 49.8535 -36.9141 C 49.1211 -39.2578 48.5352 -41.6016 48.5352 -44.2383 C 48.5352 -49.8535 51.9531 -53.9551 59.4238 -53.9551 C 64.7461 -53.9551 66.4551 -52.2461 67.4316 -52.2461 C 68.457 -52.2461 68.8965 -52.8809 68.8965 -53.6621 C 68.8965 -54.3457 68.6523 -54.9316 67.2852 -55.5176 C 65.8203 -56.1523 63.2324 -57.0801 59.3262 -57.0801 C 49.9023 -57.0801 45.2148 -51.8066 45.2148 -44.1406 C 45.2148 -41.6016 45.752 -39.2578 46.4355 -36.9141 L 41.5527 -36.9141 C 40.6738 -36.9141 40.0391 -36.3281 40.0391 -35.4004 C 40.0391 -34.4727 40.6738 -33.8379 41.5527 -33.8379 L 47.2656 -33.8379 C 47.8027 -31.8359 48.2422 -29.7363 48.2422 -27.5391 C 48.2422 -22.9004 45.3125 -18.6523 40.332 -17.7246 C 39.4531 -17.4805 38.916 -17.041 38.916 -16.0645 C 38.916 -15.0879 39.5508 -14.4043 40.4785 -14.4043 Z"/>
  </g>
  <g id="Ultralight-M" transform="matrix(1 0 0 1 504.535 1126)">
   <path d="M 25 7.56836 L 85.3516 7.56836 C 93.5059 7.56836 97.9004 3.125 97.9004 -4.98047 L 97.9004 -65.2832 C 97.9004 -73.3887 93.5059 -77.832 85.3516 -77.832 L 25 -77.832 C 16.7969 -77.832 12.4512 -73.4863 12.4512 -65.2832 L 12.4512 -4.98047 C 12.4512 3.22266 16.7969 7.56836 25 7.56836 Z M 25.0977 5.17578 C 18.3594 5.17578 14.8438 1.66016 14.8438 -5.07812 L 14.8438 -65.1855 C 14.8438 -71.9727 18.3594 -75.4395 25.0977 -75.4395 L 85.2051 -75.4395 C 91.748 -75.4395 95.5078 -71.9727 95.5078 -65.1855 L 95.5078 -5.07812 C 95.5078 1.66016 91.748 5.17578 85.2051 5.17578 Z M 40.0391 -14.7949 L 68.5547 -14.7949 C 69.2871 -14.7949 69.7754 -15.2832 69.7754 -16.0156 C 69.7754 -16.748 69.2871 -17.2363 68.5547 -17.2363 L 45.6543 -17.2363 C 48.3887 -19.2871 50.5859 -23.3887 50.5859 -27.1973 C 50.5859 -29.6387 50.1465 -31.8359 49.5605 -33.8867 L 63.2324 -33.8867 C 63.9648 -33.8867 64.4531 -34.375 64.4531 -35.1074 C 64.4531 -35.8398 63.9648 -36.3281 63.2324 -36.3281 L 48.877 -36.3281 C 48.1445 -38.8184 47.4609 -41.2598 47.4609 -43.9453 C 47.4609 -49.707 50.8301 -53.9551 58.5449 -53.9551 C 64.209 -53.9551 65.8691 -52.0508 66.748 -52.0508 C 67.5293 -52.0508 67.8223 -52.5391 67.8223 -53.1738 C 67.8223 -53.6621 67.7246 -54.0527 66.5039 -54.6387 C 65.2344 -55.1758 62.6953 -56.3477 58.5938 -56.3477 C 49.3164 -56.3477 45.0195 -51.1719 45.0195 -43.9941 C 45.0195 -41.2598 45.6543 -38.7695 46.4355 -36.3281 L 41.4062 -36.3281 C 40.6738 -36.3281 40.1855 -35.8398 40.1855 -35.1074 C 40.1855 -34.375 40.6738 -33.8867 41.4062 -33.8867 L 47.0703 -33.8867 C 47.6562 -31.7871 48.1445 -29.5898 48.1445 -27.1973 C 48.1445 -22.7051 45.3125 -18.2129 39.8926 -17.2852 C 39.3066 -17.1387 38.8184 -16.8457 38.8184 -16.0645 C 38.8184 -15.332 39.3066 -14.7949 40.0391 -14.7949 Z"/>
  </g>
  <g id="Black-S" transform="matrix(1 0 0 1 2885.5 696)">
   <path d="M 25 2.92969 L 70.8008 2.92969 C 80.3711 2.92969 86.0352 -2.73438 86.0352 -12.3047 L 86.0352 -58.1055 C 86.0352 -67.6758 80.3711 -73.3398 70.8008 -73.3398 L 25 -73.3398 C 15.4297 -73.3398 9.76562 -67.6758 9.76562 -58.1055 L 9.76562 -12.3047 C 9.76562 -2.73438 15.4297 2.92969 25 2.92969 Z M 27.2461 -11.2305 C 25 -11.2305 23.9258 -12.1094 23.9258 -14.5508 L 23.9258 -55.8594 C 23.9258 -58.3008 25 -59.1797 27.2461 -59.1797 L 68.5547 -59.1797 C 70.8008 -59.1797 71.875 -58.3008 71.875 -55.8594 L 71.875 -14.5508 C 71.875 -12.1094 70.8008 -11.2305 68.5547 -11.2305 Z M 37.9395 -20.0684 L 56.3965 -20.0684 C 58.9355 -20.0684 60.6934 -21.6797 60.6934 -24.2188 C 60.6934 -26.7578 58.9355 -28.3203 56.3965 -28.3203 L 46.582 -28.3203 C 47.9492 -29.6875 48.6328 -31.1035 48.6328 -32.6172 C 48.6328 -33.0566 48.584 -33.4473 48.5352 -33.6914 L 55.127 -33.6914 C 56.8359 -33.6914 57.8613 -34.7656 57.8613 -36.2305 C 57.8613 -37.7441 56.8359 -38.7207 55.127 -38.7207 L 47.6562 -38.7207 C 47.5098 -39.4043 47.3633 -40.0879 47.3633 -40.7715 C 47.3633 -43.0664 49.0234 -44.4824 52.5391 -44.4824 C 54.7852 -44.4824 55.3223 -44.1895 57.2754 -44.1895 C 59.2285 -44.1895 60.791 -45.2637 60.791 -47.4609 C 60.791 -48.9258 60.2051 -50 59.0332 -50.8301 C 57.4707 -51.9043 54.9316 -52.4414 50.8301 -52.4414 C 42.1387 -52.4414 37.3047 -48.1445 37.3047 -42.4316 C 37.3047 -41.1621 37.5488 -39.9414 37.8418 -38.7207 L 35.8398 -38.7207 C 34.1309 -38.7207 33.1055 -37.7441 33.1055 -36.2305 C 33.1055 -34.7656 34.1309 -33.6914 35.8398 -33.6914 L 38.7695 -33.6914 L 38.7695 -33.4961 C 38.7695 -31.25 37.6953 -29.5898 36.6211 -28.5156 C 35.0586 -26.9531 33.6914 -26.0254 33.6914 -23.9258 C 33.6914 -21.582 35.4492 -20.0684 37.9395 -20.0684 Z"/>
  </g>
  <g id="Heavy-S" transform="matrix(1 0 0 1 2589.4 696)">
   <path d="M 24.3652 2.34375 L 70.2637 2.34375 C 79.541 2.34375 84.8145 -2.97852 84.8145 -12.207 L 84.8145 -58.2031 C 84.8145 -67.4316 79.541 -72.7539 70.2637 -72.7539 L 24.3652 -72.7539 C 15.0879 -72.7539 9.76562 -67.4316 9.76562 -58.2031 L 9.76562 -12.207 C 9.76562 -2.97852 15.0879 2.34375 24.3652 2.34375 Z M 26.0742 -10.1562 C 23.5352 -10.1562 22.2656 -11.2793 22.2656 -14.0137 L 22.2656 -56.3965 C 22.2656 -59.1309 23.5352 -60.2539 26.0742 -60.2539 L 68.5059 -60.2539 C 71.0449 -60.2539 72.3633 -59.1309 72.3633 -56.3965 L 72.3633 -14.0137 C 72.3633 -11.2793 71.0449 -10.1562 68.5059 -10.1562 Z M 36.8652 -19.4824 L 56.4941 -19.4824 C 58.7891 -19.4824 60.4004 -20.9473 60.4004 -23.2422 C 60.4004 -25.5371 58.7891 -27.002 56.4941 -27.002 L 45.1172 -27.002 C 46.6309 -28.418 47.4609 -30.2246 47.4609 -32.1777 C 47.4609 -32.8125 47.4121 -33.3496 47.3145 -33.7402 L 54.541 -33.7402 C 56.1523 -33.7402 57.1777 -34.8145 57.1777 -36.2305 C 57.1777 -37.6953 56.1523 -38.6719 54.541 -38.6719 L 46.3867 -38.6719 C 46.1914 -39.502 45.9961 -40.3809 45.9961 -41.3574 C 45.9961 -44.043 47.998 -45.752 51.8066 -45.752 C 54.248 -45.752 55.0293 -45.3613 56.7871 -45.3613 C 58.6426 -45.3613 60.0098 -46.3867 60.0098 -48.3887 C 60.0098 -49.8047 59.4238 -50.8301 58.2031 -51.6113 C 56.543 -52.5879 54.1016 -53.0273 50.4395 -53.0273 C 41.8945 -53.0273 37.0117 -48.6328 37.0117 -42.5293 C 37.0117 -41.2109 37.2559 -39.9414 37.5488 -38.6719 L 35.2051 -38.6719 C 33.5449 -38.6719 32.5684 -37.6953 32.5684 -36.2305 C 32.5684 -34.8145 33.5449 -33.7402 35.2051 -33.7402 L 38.5254 -33.7402 C 38.5742 -33.4473 38.623 -33.0566 38.623 -32.7637 C 38.623 -30.0781 37.207 -28.2227 35.791 -27.1973 C 34.2285 -25.8789 33.0078 -25 33.0078 -23.0469 C 33.0078 -20.8984 34.5703 -19.4824 36.8652 -19.4824 Z"/>
  </g>
  <g id="Bold-S" transform="matrix(1 0 0 1 2293.35 696)">
   <path d="M 23.6328 1.66016 L 69.6289 1.66016 C 78.6133 1.66016 83.4961 -3.22266 83.4961 -12.1094 L 83.4961 -58.3008 C 83.4961 -67.1875 78.6133 -72.0703 69.6289 -72.0703 L 23.6328 -72.0703 C 14.6973 -72.0703 9.76562 -67.1875 9.76562 -58.3008 L 9.76562 -12.1094 C 9.76562 -3.22266 14.6973 1.66016 23.6328 1.66016 Z M 24.8047 -8.93555 C 21.9238 -8.93555 20.3613 -10.3516 20.3613 -13.4277 L 20.3613 -56.9824 C 20.3613 -60.0586 21.9238 -61.4746 24.8047 -61.4746 L 68.457 -61.4746 C 71.3379 -61.4746 72.9004 -60.0586 72.9004 -56.9824 L 72.9004 -13.4277 C 72.9004 -10.3516 71.3379 -8.93555 68.457 -8.93555 Z M 35.6445 -18.8477 L 56.5918 -18.8477 C 58.5938 -18.8477 60.0098 -20.166 60.0098 -22.2168 C 60.0098 -24.2188 58.5938 -25.4883 56.5918 -25.4883 L 43.5059 -25.4883 C 45.166 -27.0508 46.1426 -29.248 46.1426 -31.6895 C 46.1426 -32.4707 46.0449 -33.2031 45.9473 -33.8379 L 53.8574 -33.8379 C 55.4199 -33.8379 56.4453 -34.8145 56.4453 -36.2305 C 56.4453 -37.6953 55.4199 -38.623 53.8574 -38.623 L 44.9219 -38.623 C 44.7266 -39.6484 44.5312 -40.7227 44.5312 -41.9434 C 44.5312 -45.166 46.8262 -47.2168 51.0254 -47.2168 C 53.6621 -47.2168 54.7363 -46.6797 56.25 -46.6797 C 58.0078 -46.6797 59.1797 -47.6562 59.1797 -49.4629 C 59.1797 -50.7812 58.5938 -51.7578 57.2266 -52.4414 C 55.4688 -53.3691 53.125 -53.7109 50 -53.7109 C 41.6504 -53.7109 36.6699 -49.2188 36.6699 -42.627 C 36.6699 -41.2598 36.8652 -39.9414 37.207 -38.623 L 34.4727 -38.623 C 32.959 -38.623 31.9336 -37.6953 31.9336 -36.2305 C 31.9336 -34.8145 32.959 -33.8379 34.4727 -33.8379 L 38.2324 -33.8379 C 38.3789 -33.2031 38.4766 -32.5684 38.4766 -31.9824 C 38.4766 -28.7598 36.6699 -26.6602 34.8633 -25.7324 C 33.252 -24.707 32.2754 -23.8281 32.2754 -22.0703 C 32.2754 -20.1172 33.6426 -18.8477 35.6445 -18.8477 Z"/>
  </g>
  <g id="Semibold-S" transform="matrix(1 0 0 1 1997.1 696)">
   <path d="M 23.0957 1.17188 L 69.1895 1.17188 C 77.9297 1.17188 82.5684 -3.36914 82.5684 -12.0117 L 82.5684 -58.3984 C 82.5684 -67.041 77.9297 -71.582 69.1895 -71.582 L 23.0957 -71.582 C 14.4043 -71.582 9.76562 -67.041 9.76562 -58.3984 L 9.76562 -12.0117 C 9.76562 -3.36914 14.4043 1.17188 23.0957 1.17188 Z M 23.877 -8.10547 C 20.752 -8.10547 19.0918 -9.7168 19.0918 -12.9883 L 19.0918 -57.4219 C 19.0918 -60.6934 20.752 -62.3047 23.877 -62.3047 L 68.4082 -62.3047 C 71.5332 -62.3047 73.2422 -60.6934 73.2422 -57.4219 L 73.2422 -12.9883 C 73.2422 -9.7168 71.5332 -8.10547 68.4082 -8.10547 Z M 34.8145 -18.4082 L 56.6406 -18.4082 C 58.4961 -18.4082 59.7656 -19.6289 59.7656 -21.4355 C 59.7656 -23.291 58.4961 -24.4629 56.6406 -24.4629 L 42.4316 -24.4629 C 44.1406 -26.0742 45.2148 -28.5645 45.2148 -31.2988 C 45.2148 -32.2754 45.1172 -33.1543 44.9707 -33.8867 L 53.418 -33.8867 C 54.8828 -33.8867 55.9082 -34.8633 55.9082 -36.2793 C 55.9082 -37.6953 54.8828 -38.5742 53.418 -38.5742 L 43.9453 -38.5742 C 43.7012 -39.7461 43.457 -40.9668 43.457 -42.3828 C 43.457 -45.8984 46.0449 -48.1934 50.4395 -48.1934 C 53.2227 -48.1934 54.4922 -47.6074 55.9082 -47.6074 C 57.5684 -47.6074 58.5938 -48.5352 58.5938 -50.1953 C 58.5938 -51.4648 58.0078 -52.3926 56.5918 -53.0762 C 54.7363 -53.9062 52.4902 -54.1992 49.6582 -54.1992 C 41.4551 -54.1992 36.4258 -49.6094 36.4258 -42.6758 C 36.4258 -41.3086 36.6211 -39.9414 36.9629 -38.5742 L 33.9844 -38.5742 C 32.5195 -38.5742 31.4941 -37.6953 31.4941 -36.2793 C 31.4941 -34.8633 32.5195 -33.8867 33.9844 -33.8867 L 37.9883 -33.8867 C 38.2324 -33.0566 38.3301 -32.1777 38.3301 -31.4453 C 38.3301 -27.832 36.2793 -25.6348 34.1797 -24.707 C 32.6172 -23.877 31.7383 -22.998 31.7383 -21.3867 C 31.7383 -19.5801 32.959 -18.4082 34.8145 -18.4082 Z"/>
  </g>
  <g id="Medium-S" transform="matrix(1 0 0 1 1700.75 696)">
   <path d="M 22.7051 0.830078 L 68.8965 0.830078 C 77.4414 0.830078 81.8359 -3.51562 81.8359 -11.9629 L 81.8359 -58.4473 C 81.8359 -66.8945 77.4414 -71.2402 68.8965 -71.2402 L 22.7051 -71.2402 C 14.209 -71.2402 9.76562 -66.8945 9.76562 -58.4473 L 9.76562 -11.9629 C 9.76562 -3.51562 14.209 0.830078 22.7051 0.830078 Z M 23.1934 -7.4707 C 19.9219 -7.4707 18.0664 -9.22852 18.0664 -12.6953 L 18.0664 -57.7148 C 18.0664 -61.1816 19.9219 -62.9395 23.1934 -62.9395 L 68.4082 -62.9395 C 71.6797 -62.9395 73.5352 -61.1816 73.5352 -57.7148 L 73.5352 -12.6953 C 73.5352 -9.22852 71.6797 -7.4707 68.4082 -7.4707 Z M 34.1797 -18.1152 L 56.6895 -18.1152 C 58.3984 -18.1152 59.6191 -19.1895 59.6191 -20.8984 C 59.6191 -22.6074 58.3984 -23.6816 56.6895 -23.6816 L 41.5527 -23.6816 C 43.4082 -25.3418 44.5312 -28.0273 44.5312 -31.0547 C 44.5312 -32.1289 44.4336 -33.0566 44.2383 -33.9355 L 53.0762 -33.9355 C 54.4922 -33.9355 55.5176 -34.8633 55.5176 -36.2793 C 55.5176 -37.6465 54.4922 -38.5742 53.0762 -38.5742 L 43.2129 -38.5742 C 42.9199 -39.7949 42.6758 -41.1621 42.6758 -42.7246 C 42.6758 -46.4844 45.459 -48.9746 50 -48.9746 C 52.9297 -48.9746 54.3457 -48.291 55.6152 -48.291 C 57.2754 -48.291 58.1543 -49.2188 58.1543 -50.7324 C 58.1543 -51.9531 57.5684 -52.8809 56.1035 -53.5156 C 54.1992 -54.2969 52.002 -54.541 49.4629 -54.541 C 41.3086 -54.541 36.2305 -49.9023 36.2305 -42.7246 C 36.2305 -41.3574 36.4258 -39.9414 36.8164 -38.5742 L 33.5938 -38.5742 C 32.1777 -38.5742 31.2012 -37.6465 31.2012 -36.2793 C 31.2012 -34.8633 32.1777 -33.9355 33.5938 -33.9355 L 37.8418 -33.9355 C 38.0859 -32.9102 38.2812 -31.9336 38.2812 -31.0059 C 38.2812 -27.1484 35.9863 -24.8047 33.6914 -23.9746 C 32.1289 -23.2422 31.3477 -22.4121 31.3477 -20.8496 C 31.3477 -19.1895 32.4707 -18.1152 34.1797 -18.1152 Z"/>
  </g>
  <g id="Regular-S" transform="matrix(1 0 0 1 1404.51 696)">
   <path d="M 22.2168 0.390625 L 68.457 0.390625 C 76.8066 0.390625 80.9082 -3.71094 80.9082 -11.9141 L 80.9082 -58.4961 C 80.9082 -66.6992 76.8066 -70.8008 68.457 -70.8008 L 22.2168 -70.8008 C 13.916 -70.8008 9.76562 -66.6992 9.76562 -58.4961 L 9.76562 -11.9141 C 9.76562 -3.71094 13.916 0.390625 22.2168 0.390625 Z M 22.3145 -6.68945 C 18.7988 -6.68945 16.7969 -8.54492 16.7969 -12.2559 L 16.7969 -58.1543 C 16.7969 -61.8164 18.7988 -63.7207 22.3145 -63.7207 L 68.3594 -63.7207 C 71.875 -63.7207 73.877 -61.8164 73.877 -58.1543 L 73.877 -12.2559 C 73.877 -8.54492 71.875 -6.68945 68.3594 -6.68945 Z M 33.3496 -17.6758 L 56.7871 -17.6758 C 58.3008 -17.6758 59.375 -18.6523 59.375 -20.166 C 59.375 -21.6797 58.3008 -22.6562 56.7871 -22.6562 L 40.4785 -22.6562 C 42.3828 -24.3652 43.6523 -27.3438 43.6523 -30.7129 C 43.6523 -31.9336 43.5059 -33.0078 43.3105 -33.9844 L 52.6367 -33.9844 C 54.0039 -33.9844 54.9805 -34.9121 54.9805 -36.2793 C 54.9805 -37.6465 54.0039 -38.5254 52.6367 -38.5254 L 42.2363 -38.5254 C 41.8945 -39.8926 41.6504 -41.3574 41.6504 -43.1641 C 41.6504 -47.2168 44.6777 -49.9512 49.4629 -49.9512 C 52.5391 -49.9512 54.1016 -49.1699 55.2734 -49.1699 C 56.8359 -49.1699 57.5684 -50.0977 57.5684 -51.4648 C 57.5684 -52.6367 56.9824 -53.5156 55.4199 -54.1016 C 53.4668 -54.834 51.3672 -54.9805 49.1211 -54.9805 C 41.1133 -54.9805 35.9863 -50.293 35.9863 -42.7734 C 35.9863 -41.3574 36.2305 -39.9414 36.5723 -38.5254 L 33.1055 -38.5254 C 31.7383 -38.5254 30.7617 -37.6465 30.7617 -36.2793 C 30.7617 -34.9121 31.7383 -33.9844 33.1055 -33.9844 L 37.6465 -33.9844 C 37.9395 -32.7637 38.1836 -31.543 38.1836 -30.4688 C 38.1836 -26.2695 35.6445 -23.7793 33.0566 -22.9492 C 31.4453 -22.4121 30.8594 -21.582 30.8594 -20.166 C 30.8594 -18.6523 31.8359 -17.6758 33.3496 -17.6758 Z"/>
  </g>
  <g id="Light-S" transform="matrix(1 0 0 1 1108.46 696)">
   <path d="M 21.3867 -0.292969 L 67.9688 -0.292969 C 75.7324 -0.292969 79.5898 -4.15039 79.5898 -11.7676 L 79.5898 -58.5938 C 79.5898 -66.2109 75.7324 -70.1172 67.9688 -70.1172 L 21.3867 -70.1172 C 13.6719 -70.1172 9.76562 -66.2598 9.76562 -58.5938 L 9.76562 -11.7676 C 9.76562 -4.15039 13.6719 -0.292969 21.3867 -0.292969 Z M 21.4844 -5.71289 C 17.4316 -5.71289 15.1855 -7.86133 15.1855 -12.0605 L 15.1855 -58.3008 C 15.1855 -62.5 17.4316 -64.6973 21.4844 -64.6973 L 67.8711 -64.6973 C 71.875 -64.6973 74.1699 -62.5 74.1699 -58.3008 L 74.1699 -12.0605 C 74.1699 -7.86133 71.875 -5.71289 67.8711 -5.71289 Z M 32.7148 -18.1641 L 55.8105 -18.1641 C 57.0312 -18.1641 57.9102 -18.9453 57.9102 -20.166 C 57.9102 -21.3867 57.0312 -22.168 55.8105 -22.168 L 39.0137 -22.168 C 40.9668 -23.877 42.3828 -26.9043 42.3828 -30.1758 C 42.3828 -31.5918 42.1875 -32.8613 41.8945 -34.0332 L 51.6602 -34.0332 C 52.7832 -34.0332 53.5645 -34.8145 53.5645 -35.9375 C 53.5645 -37.0605 52.7832 -37.793 51.6602 -37.793 L 41.0156 -37.793 C 40.625 -39.3066 40.2344 -40.918 40.2344 -42.8223 C 40.2344 -47.0215 43.1641 -49.9512 48.3398 -49.9512 C 51.8066 -49.9512 53.3203 -48.9258 54.3457 -48.9258 C 55.6152 -48.9258 56.2012 -49.6582 56.2012 -50.7812 C 56.2012 -51.709 55.7617 -52.4414 54.3945 -52.9297 C 52.7344 -53.5645 50.6348 -54.0039 48.1445 -54.0039 C 40.332 -54.0039 35.791 -49.5117 35.791 -42.5781 C 35.791 -40.918 36.084 -39.3555 36.5234 -37.793 L 32.9102 -37.793 C 31.7871 -37.793 31.0059 -37.0605 31.0059 -35.9375 C 31.0059 -34.8145 31.7871 -34.0332 32.9102 -34.0332 L 37.4023 -34.0332 C 37.7441 -32.666 38.0371 -31.2988 38.0371 -29.9805 C 38.0371 -26.0254 35.5957 -23.1934 32.5195 -22.4121 C 31.25 -22.0215 30.7129 -21.3379 30.7129 -20.166 C 30.7129 -18.9453 31.4941 -18.1641 32.7148 -18.1641 Z"/>
  </g>
  <g id="Thin-S" transform="matrix(1 0 0 1 812.599 696)">
   <path d="M 20.3125 -1.12305 L 67.334 -1.12305 C 74.2676 -1.12305 77.8809 -4.78516 77.8809 -11.6211 L 77.8809 -58.6914 C 77.8809 -65.5762 74.2676 -69.2383 67.334 -69.2383 L 20.3125 -69.2383 C 13.3789 -69.2383 9.76562 -65.625 9.76562 -58.6914 L 9.76562 -11.6211 C 9.76562 -4.6875 13.3789 -1.12305 20.3125 -1.12305 Z M 20.4102 -4.44336 C 15.625 -4.44336 13.0859 -6.93359 13.0859 -11.8164 L 13.0859 -58.5449 C 13.0859 -63.3789 15.625 -65.918 20.4102 -65.918 L 67.2363 -65.918 C 71.875 -65.918 74.5605 -63.3789 74.5605 -58.5449 L 74.5605 -11.8164 C 74.5605 -6.93359 71.875 -4.44336 67.2363 -4.44336 Z M 31.9336 -18.7988 L 54.541 -18.7988 C 55.3711 -18.7988 55.957 -19.3359 55.957 -20.166 C 55.957 -20.9961 55.3711 -21.5332 54.541 -21.5332 L 37.0605 -21.5332 C 39.1602 -23.1934 40.7227 -26.3672 40.7227 -29.4434 C 40.7227 -31.1523 40.4785 -32.666 40.0879 -34.1309 L 50.3906 -34.1309 C 51.2207 -34.1309 51.7578 -34.668 51.7578 -35.4492 C 51.7578 -36.2305 51.2207 -36.7676 50.3906 -36.7676 L 39.4043 -36.7676 C 38.8672 -38.5742 38.4277 -40.3809 38.4277 -42.3828 C 38.4277 -46.7773 41.1621 -49.9023 46.875 -49.9023 C 50.9277 -49.9023 52.2949 -48.6328 53.125 -48.6328 C 54.0039 -48.6328 54.3945 -49.1699 54.3945 -49.9023 C 54.3945 -50.4883 54.1504 -50.9766 53.0273 -51.4648 C 51.8066 -51.9531 49.7559 -52.6367 46.7773 -52.6367 C 39.3066 -52.6367 35.498 -48.4375 35.498 -42.2852 C 35.498 -40.3809 35.8887 -38.5254 36.4258 -36.7676 L 32.666 -36.7676 C 31.8359 -36.7676 31.2988 -36.2305 31.2988 -35.4492 C 31.2988 -34.668 31.8359 -34.1309 32.666 -34.1309 L 37.1094 -34.1309 C 37.5 -32.5684 37.8418 -31.0059 37.8418 -29.3457 C 37.8418 -25.6836 35.5469 -22.4121 31.7871 -21.6797 C 31.0059 -21.4355 30.5176 -21.0449 30.5176 -20.2148 C 30.5176 -19.3848 31.1035 -18.7988 31.9336 -18.7988 Z"/>
  </g>
  <g id="Ultralight-S" transform="matrix(1 0 0 1 516.352 696)">
   <path d="M 19.7754 -1.5625 L 66.9922 -1.5625 C 73.5352 -1.5625 76.9531 -5.12695 76.9531 -11.5234 L 76.9531 -58.7891 C 76.9531 -65.2344 73.5352 -68.75 66.9922 -68.75 L 19.7754 -68.75 C 13.2324 -68.75 9.76562 -65.2832 9.76562 -58.7891 L 9.76562 -11.5234 C 9.76562 -5.0293 13.2324 -1.5625 19.7754 -1.5625 Z M 19.873 -3.75977 C 14.6484 -3.75977 11.9629 -6.44531 11.9629 -11.6699 L 11.9629 -58.6426 C 11.9629 -63.8672 14.6484 -66.5527 19.873 -66.5527 L 66.8945 -66.5527 C 71.875 -66.5527 74.7559 -63.8672 74.7559 -58.6426 L 74.7559 -11.6699 C 74.7559 -6.44531 71.875 -3.75977 66.8945 -3.75977 Z M 31.4941 -19.0918 L 53.9062 -19.0918 C 54.541 -19.0918 54.9805 -19.5312 54.9805 -20.166 C 54.9805 -20.8008 54.541 -21.2402 53.9062 -21.2402 L 36.084 -21.2402 C 38.1836 -22.8516 39.8926 -26.0254 39.8926 -29.0527 C 39.8926 -30.9082 39.5508 -32.5684 39.1113 -34.1797 L 49.7559 -34.1797 C 50.3906 -34.1797 50.7812 -34.5703 50.7812 -35.2051 C 50.7812 -35.8398 50.3906 -36.2305 49.7559 -36.2305 L 38.5742 -36.2305 C 37.9883 -38.1836 37.4512 -40.0391 37.4512 -42.1387 C 37.4512 -46.6309 40.1367 -49.9023 46.1426 -49.9023 C 50.4395 -49.9023 51.7578 -48.4863 52.4902 -48.4863 C 53.1738 -48.4863 53.418 -48.877 53.418 -49.4141 C 53.418 -49.8535 53.3203 -50.2441 52.2949 -50.6836 C 51.2695 -51.123 49.2676 -51.9531 46.0938 -51.9531 C 38.7695 -51.9531 35.3516 -47.9004 35.3516 -42.1387 C 35.3516 -40.0391 35.791 -38.1348 36.377 -36.2305 L 32.5195 -36.2305 C 31.8848 -36.2305 31.4453 -35.8398 31.4453 -35.2051 C 31.4453 -34.5703 31.8848 -34.1797 32.5195 -34.1797 L 36.9629 -34.1797 C 37.4023 -32.5195 37.7441 -30.8594 37.7441 -29.0527 C 37.7441 -25.4883 35.498 -22.0215 31.3965 -21.2891 C 30.8594 -21.1426 30.4199 -20.8984 30.4199 -20.2148 C 30.4199 -19.5801 30.8594 -19.0918 31.4941 -19.0918 Z"/>
  </g>
 </g>
</svg>
